<?xml version="1.0" encoding="utf-8"?>
<!-- Generator: Adobe Illustrator 21.0.0, SVG Export Plug-In . SVG Version: 6.00 Build 0)  -->
<svg version="1.1" id="Layer_1" xmlns="http://www.w3.org/2000/svg" xmlns:xlink="http://www.w3.org/1999/xlink" x="0px" y="0px"
	 viewBox="0 0 1920 1080" style="enable-background:new 0 0 1920 1080;" xml:space="preserve">
<style type="text/css">
	.st0{opacity:0.7;fill:url(#SVGID_1_);}
	.st1{opacity:0.8;fill:#FFFFFF;}
	.st2{fill:none;}
	.st3{fill:#B3B3B3;}
	.st4{font-family:'Montserrat-SemiBold';}
	.st5{font-size:128px;}
	.st6{fill:#4775BA;}
	.st7{fill:#9EB7DB;}
</style>
<radialGradient id="SVGID_1_" cx="960" cy="540" r="778.8453" gradientUnits="userSpaceOnUse">
	<stop  offset="0" style="stop-color:#FFFFFF"/>
	<stop  offset="1" style="stop-color:#000000"/>
</radialGradient>
<rect class="st0" width="1920" height="1080"/>
<rect class="st1" width="1920" height="1080"/>
<rect x="505" y="839.4" class="st2" width="1295" height="171.9"/>
<text transform="matrix(1 0 0 1 504.9648 934.3252)" class="st3 st4 st5">JUST $3.75/MONTH</text>
<g>
	<path class="st6" d="M196.3,345.3c25.3,0.4,50.6,0.3,75.9,0.1c0.3,25.6,0.3,51.2,0,76.7c-25.4-0.2-50.7-0.2-76.1,0
		C196,396.5,195.6,370.9,196.3,345.3L196.3,345.3z"/>
	<path class="st6" d="M98.2,345.5c25.5,0,51,0,76.4,0c0.1,25.5,0,50.9,0,76.4c-25.5,0.1-51,0-76.5,0C98.1,396.5,98.1,371,98.2,345.5
		L98.2,345.5z"/>
	<path class="st6" d="M293.7,345.5c25.5,0,51,0,76.4,0c0,25.5,0,50.9,0,76.4c-25.5,0-51,0-76.4,0C293.7,396.5,293.7,371,293.7,345.5
		L293.7,345.5z"/>
	<path class="st6" d="M705.1,345.5c6.5,0,13.1,0,19.7,0c0,90.7,0,181.3,0,272c-6.6,0-13.1,0-19.7,0
		C705.1,526.9,705.1,436.2,705.1,345.5L705.1,345.5z"/>
	<path class="st6" d="M1139.5,345.6c12-0.1,24-0.1,36,0c-0.1,38.8,0,77.5,0,116.3c13.6-16.8,34.8-28.3,56.8-27.1
		c17.2,0.2,34.6,8,44.6,22.3c11.5,16.1,14.4,36.5,13.8,55.8c-0.1,34.8,0,69.7,0,104.5c-12,0-24,0.1-36,0c0-36.3-0.1-72.6,0-109
		c0.1-12.1-2.4-25-10.6-34.4c-8.9-10.1-24.1-12.9-36.6-8.6c-13.1,4.4-23.5,14.2-32.1,24.6c0.1,42.5,0.3,85-0.1,127.6
		c-11.9-0.2-23.8,0-35.8-0.1C1139.5,526.8,1139.5,436.2,1139.5,345.6L1139.5,345.6z"/>
	<path class="st6" d="M1681.9,456.6c19.2-18.4,38-37.3,57.3-55.7c0.1,12.5-0.3,25,0.2,37.5c18.9-0.3,37.7-0.3,56.5-0.1
		c-0.1,10.8,0,21.6,0,32.4c-19,0.3-38-0.4-57,0.3c0.6,31.1-0.1,62.3,0.3,93.4c0,11.8,9.2,22.6,21,23.9c15.9,1.7,31.1-5.2,44.7-12.9
		c-0.1,11.3-0.1,22.6,0,33.9c-22.7,11.3-50.7,16.9-74.4,5.2c-17.2-8.2-26.8-27.1-27.3-45.6c-0.3-32.8,0.2-65.5-0.3-98.3
		c-10.3,0.3-20.7,0.1-31,0.1C1671.5,464.2,1677.9,460.9,1681.9,456.6L1681.9,456.6z"/>
	<path class="st6" d="M1580.3,436c23.8-4.2,48.1,2.1,69,13.5c-0.1,11.9,0,23.8-0.1,35.7c-16-9.8-33.7-18.6-52.9-18.8
		c-8.7,0.1-19.6,3.6-22,13c-2.1,6.7,4.1,12,8.5,16c21.2,17.1,48.1,27.1,65.9,48.4c12.2,14,11,35.3,2.2,50.8
		c-8.9,15.2-25.8,24.3-43,26.2c-25.1,2.8-50.1-4.2-72.2-15.8c0-13,0-26.1,0-39.1c17.2,10.9,35.5,21.8,56.2,23.6
		c11.3,0.6,25.4-4,28.5-16.1c2.1-8.4-5-14.9-11.1-19.3c-20.7-14.4-45.6-23.5-62.1-43.3c-12.5-14.3-13-36.6-3.3-52.5
		C1551.6,445.4,1566,438.5,1580.3,436L1580.3,436z"/>
	<path class="st6" d="M769.2,438.2c6.6,0,13.1,0,19.7,0c-0.1,37.6,0,75.3-0.1,113c-0.1,15.8,6.2,32.5,19.4,41.9
		c13.2,9.6,30.9,10.5,46.3,6.6c14.1-3.7,25.4-14.2,33.7-25.9c2.8-4.2,7.2-8.1,6.9-13.6c0-40.6,0-81.3,0-122c6.6,0,13.1,0,19.7,0
		c0.2,59.6-0.3,119.3,0.2,179c-6.6,0.4-13.3,0.4-19.9,0.3c0-9.8,0-19.7,0-29.5c-9.1,13-20.6,25.5-36.3,30.1
		c-22.2,6.3-48,3.4-66.4-11.3c-15.8-12.7-23.2-33.6-23.2-53.5C769.2,515,769.1,476.6,769.2,438.2L769.2,438.2z"/>
	<path class="st6" d="M98,443.5c25.6-0.3,51.2-0.4,76.8,0c-0.3,25.3-0.2,50.7-0.1,76c-25.6,0.2-51.1,0.3-76.7,0
		C98.2,494.2,98.2,468.9,98,443.5L98,443.5z"/>
	<path class="st6" d="M195.9,443.3c25.5,0,51,0,76.4,0c0,25.5,0,50.9,0,76.4c-25.5,0-51,0-76.4,0
		C195.9,494.2,195.9,468.8,195.9,443.3L195.9,443.3z"/>
	<path class="st6" d="M293.6,443.4c25.5-0.2,51-0.1,76.6,0c-0.2,25.5,0.2,51-0.2,76.4c-25.5-0.3-51,0.2-76.4-0.3
		C293.8,494.2,293.7,468.8,293.6,443.4L293.6,443.4z"/>
	<path class="st6" d="M505,345.5c6.6,0,13.1,0,19.7,0c0.1,38.8-0.1,77.6,0.1,116.4c5.8-3.8,10.5-8.9,16.3-12.7
		c33.5-24.3,87-18.1,111,16.8c15.6,21.9,19.1,50.4,15,76.4c-3.6,23.5-15.7,46.2-35.3,60.1c-20.5,15-46.8,20-71.8,18.4
		c-19-0.8-37.4-6.2-55-13.2C505,520.4,505,432.9,505,345.5L505,345.5z M529.7,480.1c-2,2.4-5.2,4.6-4.9,8.1
		c-0.1,35.1,0,70.3-0.1,105.5c21.4,7.9,45.2,11.1,67.4,4.9c19-5.1,35.9-17.9,45.5-35.2c14.4-26.1,13.4-60-2.4-85.3
		c-12-18.7-34.7-29.8-56.8-26.4C558.9,454,542.8,466.5,529.7,480.1L529.7,480.1z"/>
	<path class="st6" d="M979.8,451.6c30.1-24.4,78.5-22.2,105.7,5.7c17.1,16.5,23.4,41,23.8,64.1c-47,0-94,0.2-140.9-0.1
		c-6.3,37,22.6,74.4,59.4,79.6c28.6,5,56.6-8,78.1-25.9c0.1,7.5,0.1,15.1-0.1,22.6c-17.3,13.1-38,22.2-59.8,23.3
		c-26.1,2.6-53.5-5.9-71.9-24.8c-18.6-18.8-27.4-45.7-26.7-71.8C947.2,497,958.1,468.8,979.8,451.6L979.8,451.6z M992.7,466.9
		c-11.9,9.6-18.7,23.9-22.4,38.5c38.5,0.6,76.9,0.1,115.4,0.2c-3.5-17.1-11.1-34.8-26.6-44.1C1038.7,449.7,1010.9,451.8,992.7,466.9
		L992.7,466.9z"/>
	<path class="st6" d="M1408.1,435.1c30.2-2.4,62.5,7.2,83.1,30.2c26.3,28.6,29,73.6,12,107.6c-11.5,23.3-34.4,39.8-59.5,45.3
		c-28.9,6.7-61.4,2.8-85.4-15.5c-38.8-28.5-47.7-88.9-20.4-128.1C1353.7,451.6,1380.3,437,1408.1,435.1L1408.1,435.1z M1399.6,469.5
		c-11.5,3.3-21.8,10.4-28.9,20c-16.1,21.8-15.1,53.9-0.3,76.2c22.1,33.2,79.7,30.1,98.6-4.8c14-25.9,10.5-63-14.3-81.3
		C1439.3,467.8,1418.2,464.4,1399.6,469.5L1399.6,469.5z"/>
	<path class="st6" d="M196,541c25.4,0,50.8,0.2,76.2-0.1c0.5,25.5,0,50.9,0.3,76.4c-25.5,0.4-50.9-0.1-76.4,0.3
		C195.8,592.1,195.9,566.6,196,541L196,541z"/>
	<path class="st6" d="M98.2,541.1c25.5,0,51,0,76.4,0c0,25.5,0.1,50.9,0,76.4c-25.5,0-51,0.1-76.4,0C98.1,592,98.1,566.6,98.2,541.1
		L98.2,541.1z"/>
	<path class="st7" d="M293.8,541.2c25.5,0,50.9-0.1,76.3,0c0,25.4,0.1,50.9,0,76.3c-25.4,0.1-50.8,0.1-76.3,0
		C293.7,592,293.7,566.6,293.8,541.2L293.8,541.2z"/>
</g>
</svg>
