<?xml version="1.0" encoding="utf-8"?>
<!-- Generator: Adobe Illustrator 21.0.0, SVG Export Plug-In . SVG Version: 6.00 Build 0)  -->
<svg version="1.1" id="Layer_1" xmlns="http://www.w3.org/2000/svg" xmlns:xlink="http://www.w3.org/1999/xlink" x="0px" y="0px"
	 viewBox="0 0 1920 1080" style="enable-background:new 0 0 1920 1080;" xml:space="preserve">
<style type="text/css">
	.st0{opacity:0.7;fill:url(#SVGID_1_);}
	.st1{opacity:0.8;fill:#FFFFFF;}
	.st2{fill:none;}
	.st3{fill:#B3B3B3;}
	.st4{font-family:'Montserrat-SemiBold';}
	.st5{font-size:128px;}
	.st6{fill:none;enable-background:new    ;}
	.st7{fill:#FFFFFF;stroke:#FFFFFF;stroke-linejoin:round;}
	.st8{fill:#FFFFFF;}
	.st9{fill:#1677BE;}
	.st10{font-family:'Arial-BoldMT';}
	.st11{font-size:253.359px;}
</style>
<radialGradient id="SVGID_1_" cx="960" cy="540" r="778.8453" gradientUnits="userSpaceOnUse">
	<stop  offset="0" style="stop-color:#FFFFFF"/>
	<stop  offset="1" style="stop-color:#000000"/>
</radialGradient>
<rect class="st0" width="1920" height="1080"/>
<rect class="st1" width="1920" height="1080"/>
<rect x="593" y="730.4" class="st2" width="1295" height="171.9"/>
<text transform="matrix(1 0 0 1 592.9648 825.3252)" class="st3 st4 st5">30 DAY FREE TRIAL!</text>
<g>
	<g id="Outline_1_">
		
			<image style="overflow:visible;" width="68" height="44" xlink:href="EC54952.png"  transform="matrix(7.1962 0 0 7.1962 60 336)">
		</image>
		<path class="st6" d="z"/>
	</g>
	<g id="Outline_copy_1_">
		
			<image style="overflow:visible;" width="67" height="44" xlink:href="EC54956.png"  transform="matrix(7.1962 0 0 7.1962 60 336)">
		</image>
		<path class="st6" d="z"/>
	</g>
	<path id="Line_1_" class="st7" d="M63.4,642.8l154.8-155.7c3.4-3.4,8.9-3.4,12.3-0.1c0,0,0,0,0.1,0.1l1.1,1.1c3.4,3.5,3.4,9,0,12.5
		L76.9,656.4c-3.4,3.4-8.9,3.4-12.3,0.1c0,0,0,0-0.1-0.1l-1.1-1.1C60,651.8,60,646.2,63.4,642.8z M230,487l83.2,83.7
		c3.4,3.5,3.4,9,0,12.5l-1.1,1.1c-3.4,3.4-8.9,3.4-12.4,0c0,0,0,0,0,0l-83.2-83.7c-3.4-3.5-3.4-9,0-12.5l1.1-1.1
		C221,483.6,226.5,483.5,230,487C230,487,230,487,230,487z M301,572.3l245.8-247.2c3.4-3.4,8.9-3.4,12.4-0.1c0,0,0,0,0.1,0.1
		l1.1,1.1c3.4,3.5,3.4,9,0,12.5L314.5,585.9c-3.4,3.4-8.9,3.4-12.4,0c0,0,0,0,0,0l-1.1-1.1C298.1,581.5,298.7,576.1,301,572.3z"/>
	<path id="Rounded_Rectangle_3_1_" class="st8" d="M86.4,357l1.1-1.1c1.3-0.9,3.1-0.6,4.1,0.7l108.6,109.3c1.3,1,1.6,2.8,0.7,4.1
		l-1.1,1.1c-1.3,0.9-3.1,0.6-4.1-0.7L87.1,361.1C85.8,360.1,85.5,358.3,86.4,357z"/>
	<path id="Rounded_Rectangle_3_copy_1_" class="st8" d="M412.4,522.9l1.1-1.1c1.3-0.9,3.1-0.6,4.1,0.7l108.6,109.3
		c1.3,1,1.6,2.8,0.7,4.1l-1.1,1.1c-1.3,0.9-3.1,0.6-4.1-0.7L413.1,527C411.8,526.1,411.5,524.2,412.4,522.9z"/>
</g>
<text transform="matrix(1 0 0 1 574 572.417)" class="st9 st10 st11">ConvertKit</text>
<g>
</g>
</svg>
