<svg id="Layer_1" data-name="Layer 1" xmlns="http://www.w3.org/2000/svg" xmlns:xlink="http://www.w3.org/1999/xlink" viewBox="0 0 1920 1082"><defs><style>.cls-1{opacity:0.85;fill:url(#radial-gradient);}.cls-1,.cls-2{isolation:isolate;}.cls-2{fill:#2c3e50;opacity:0.8;}.cls-3{opacity:0.07;}.cls-4{fill:#fff;}</style><radialGradient id="radial-gradient" cx="960" cy="540" r="778.85" gradientTransform="matrix(1, 0, 0, -1, 0, 1080)" gradientUnits="userSpaceOnUse"><stop offset="0" stop-color="#fff"/><stop offset="1"/></radialGradient></defs><title>back</title><rect class="cls-1" width="1920" height="1080"/><rect class="cls-2" width="1920" height="1080"/><g class="cls-3"><path class="cls-4" d="M1276,430.3a45.7,45.7,0,1,0,45.7,45.7A45.75,45.75,0,0,0,1276,430.3Zm0,68.6a22.9,22.9,0,1,1,22.9-22.9A23,23,0,0,1,1276,498.9Z"/><path class="cls-4" d="M1378.9,430.3a45.7,45.7,0,1,0,45.7,45.7A45.75,45.75,0,0,0,1378.9,430.3Zm0,68.6a22.9,22.9,0,1,1,22.9-22.9A23,23,0,0,1,1378.9,498.9Z"/><path class="cls-4" d="M1481.8,430.3a45.7,45.7,0,1,0,45.7,45.7A45.75,45.75,0,0,0,1481.8,430.3Zm0,68.6a22.9,22.9,0,1,1,22.9-22.9A23,23,0,0,1,1481.8,498.9Z"/><path class="cls-4" d="M1196,396v686h686V396Zm663.1,663.1H1218.8V830.5h640.3v228.6Zm0-251.5H1218.8V556.1h640.3V807.6ZM1218.9,533.2V418.9h640.3V533.2Z"/><path class="cls-4" d="M1424.7,853.3H1264.6v80h160.1Zm-22.9,57.2H1287.5V876.2h114.3Z"/><path class="cls-4" d="M1813.4,853.3H1653.3v80h160.1Zm-22.9,57.2H1676.2V876.2h114.3Z"/><path class="cls-4" d="M1619,853.3H1459v80h160Zm-22.8,57.2H1481.9V876.2h114.3Z"/><path class="cls-4" d="M1276,979.1h137.2a11.4,11.4,0,1,0,0-22.8H1276a11.4,11.4,0,0,0,0,22.8Z"/><path class="cls-4" d="M1413.2,1002H1276a11.4,11.4,0,0,0,0,22.8h137.2a11.39,11.39,0,0,0,11.4-11.4A11.27,11.27,0,0,0,1413.2,1002Z"/><path class="cls-4" d="M1470.4,979.1h137.2a11.4,11.4,0,0,0,0-22.8H1470.4a11.4,11.4,0,0,0,0,22.8Z"/><path class="cls-4" d="M1470.4,1024.8h137.2a11.4,11.4,0,0,0,0-22.8H1470.4a11.4,11.4,0,0,0,0,22.8Z"/><path class="cls-4" d="M1664.8,979.1H1802a11.4,11.4,0,0,0,0-22.8H1664.8a11.39,11.39,0,0,0-11.4,11.4A11.27,11.27,0,0,0,1664.8,979.1Z"/><path class="cls-4" d="M1664.8,1024.8H1802a11.4,11.4,0,0,0,0-22.8H1664.8a11.39,11.39,0,0,0-11.4,11.4A11.27,11.27,0,0,0,1664.8,1024.8Z"/><path class="cls-4" d="M1503.3,734.8a19.67,19.67,0,0,0,9.9,2.7,20.4,20.4,0,0,0,10.1-2.7l61.7-36a19.93,19.93,0,0,0-.1-34.5l-61.7-35.4a19.85,19.85,0,0,0-29.8,17.3v71.4A19.26,19.26,0,0,0,1503.3,734.8Zm12.8-83.7,53,30.4-53,30.9Z"/></g></svg>