<?xml version="1.0" encoding="utf-8"?>
<!-- Generator: Adobe Illustrator 21.0.0, SVG Export Plug-In . SVG Version: 6.00 Build 0)  -->
<svg version="1.1" id="Layer_1" xmlns="http://www.w3.org/2000/svg" xmlns:xlink="http://www.w3.org/1999/xlink" x="0px" y="0px"
	 viewBox="0 0 531.1 531.1" style="enable-background:new 0 0 531.1 531.1;" xml:space="preserve">
<style type="text/css">
	.st0{fill:#ECF0F1;}
	.st1{fill:#546A79;}
	.st2{fill:#ED7161;}
	.st3{fill:#F0C419;}
	.st4{fill:#4FBA6F;}
	.st5{fill:#95A5A5;}
	.st6{fill:#8697CB;}
	.st7{fill:#71C285;}
	.st8{fill:#BDC3C7;}
	.st9{fill:#FFFFFF;}
</style>
<g>
	<rect class="st0" width="531.1" height="531.1"/>
	<rect class="st1" width="531.1" height="109.9"/>
	<path class="st2" d="M82.4,55c0,15.2-12.3,27.5-27.5,27.5c-15.2,0-27.5-12.3-27.5-27.5S39.8,27.5,55,27.5
		C70.1,27.5,82.4,39.8,82.4,55L82.4,55z"/>
	<path class="st3" d="M164.8,55c0,15.2-12.3,27.5-27.5,27.5c-15.2,0-27.5-12.3-27.5-27.5s12.3-27.5,27.5-27.5
		C152.5,27.5,164.8,39.8,164.8,55L164.8,55z"/>
	<path class="st4" d="M247.3,55c0,15.2-12.3,27.5-27.5,27.5c-15.2,0-27.5-12.3-27.5-27.5s12.3-27.5,27.5-27.5
		C234.9,27.5,247.3,39.8,247.3,55L247.3,55z"/>
	<rect y="109.9" class="st5" width="531.1" height="219.8"/>
	<rect x="55" y="366.3" class="st6" width="109.8" height="45.8"/>
	<rect x="366.3" y="366.3" class="st3" width="109.9" height="45.8"/>
	<rect x="210.6" y="366.3" class="st7" width="109.9" height="45.8"/>
	<path class="st8" d="M155.7,457.9H64.1c-5.1,0-9.2-4.1-9.2-9.2c0-5.1,4.1-9.2,9.2-9.2h91.6c5.1,0,9.1,4.1,9.1,9.2
		C164.8,453.7,160.8,457.9,155.7,457.9L155.7,457.9z"/>
	<path class="st8" d="M155.7,494.5H64.1c-5.1,0-9.2-4.1-9.2-9.2c0-5.1,4.1-9.1,9.2-9.1h91.6c5.1,0,9.1,4.1,9.1,9.1
		C164.8,490.4,160.8,494.5,155.7,494.5L155.7,494.5z"/>
	<path class="st8" d="M311.3,457.9h-91.6c-5.1,0-9.2-4.1-9.2-9.2c0-5.1,4.1-9.2,9.2-9.2h91.6c5.1,0,9.2,4.1,9.2,9.2
		C320.5,453.7,316.4,457.9,311.3,457.9L311.3,457.9z"/>
	<path class="st8" d="M311.3,494.5h-91.6c-5.1,0-9.2-4.1-9.2-9.2c0-5.1,4.1-9.1,9.2-9.1h91.6c5.1,0,9.2,4.1,9.2,9.1
		C320.5,490.4,316.4,494.5,311.3,494.5L311.3,494.5z"/>
	<path class="st8" d="M467.1,457.9h-91.6c-5.1,0-9.2-4.1-9.2-9.2c0-5.1,4.1-9.2,9.2-9.2h91.6c5.1,0,9.2,4.1,9.2,9.2
		C476.2,453.7,472.1,457.9,467.1,457.9L467.1,457.9z"/>
	<path class="st8" d="M467.1,494.5h-91.6c-5.1,0-9.2-4.1-9.2-9.2c0-5.1,4.1-9.1,9.2-9.1h91.6c5.1,0,9.2,4.1,9.2,9.1
		C476.2,490.4,472.1,494.5,467.1,494.5L467.1,494.5z"/>
	<path class="st9" d="M238.1,248.4v-57.2c0-5.2,5.7-8.5,10.2-5.9l49.5,28.4c4.6,2.6,4.6,9.2,0.1,11.8l-49.5,28.8
		C243.9,257,238.1,253.7,238.1,248.4L238.1,248.4z"/>
</g>
</svg>
