<?xml version="1.0" encoding="utf-8"?>
<!-- Generator: Adobe Illustrator 21.0.0, SVG Export Plug-In . SVG Version: 6.00 Build 0)  -->
<svg version="1.1" id="Layer_1" xmlns="http://www.w3.org/2000/svg" xmlns:xlink="http://www.w3.org/1999/xlink" x="0px" y="0px"
	 viewBox="0 0 1920 1080" style="enable-background:new 0 0 1920 1080;" xml:space="preserve">
<style type="text/css">
	.st0{opacity:0.85;fill:url(#SVGID_1_);}
	.st1{opacity:0.8;fill:#39B54A;}
	.st2{fill:#ECF0F1;}
	.st3{fill:#546A79;}
	.st4{fill:#ED7161;}
	.st5{fill:#F0C419;}
	.st6{fill:#4FBA6F;}
	.st7{fill:#95A5A5;}
	.st8{fill:#8697CB;}
	.st9{fill:#71C285;}
	.st10{fill:#BDC3C7;}
	.st11{fill:#FFFFFF;}
</style>
<radialGradient id="SVGID_1_" cx="960" cy="540" r="778.8453" gradientUnits="userSpaceOnUse">
	<stop  offset="0" style="stop-color:#FFFFFF"/>
	<stop  offset="1" style="stop-color:#000000"/>
</radialGradient>
<rect class="st0" width="1920" height="1080"/>
<rect class="st1" width="1920" height="1080"/>
<g>
	<rect x="1160.1" y="180" class="st2" width="661" height="661"/>
	<rect x="1160.1" y="180" class="st3" width="661" height="136.8"/>
	<path class="st4" d="M1262.7,248.4c0,18.9-15.3,34.2-34.2,34.2c-18.9,0-34.2-15.3-34.2-34.2c0-18.9,15.3-34.2,34.2-34.2
		C1247.4,214.2,1262.7,229.5,1262.7,248.4L1262.7,248.4z M1262.7,248.4"/>
	<path class="st5" d="M1365.2,248.4c0,18.9-15.3,34.2-34.2,34.2c-18.9,0-34.2-15.3-34.2-34.2c0-18.9,15.3-34.2,34.2-34.2
		C1349.9,214.2,1365.2,229.5,1365.2,248.4L1365.2,248.4z M1365.2,248.4"/>
	<path class="st6" d="M1467.9,248.4c0,18.9-15.3,34.2-34.2,34.2c-18.9,0-34.2-15.3-34.2-34.2c0-18.9,15.3-34.2,34.2-34.2
		C1452.5,214.2,1467.9,229.5,1467.9,248.4L1467.9,248.4z M1467.9,248.4"/>
	<rect x="1160.1" y="316.8" class="st7" width="661" height="273.5"/>
	<rect x="1228.5" y="635.9" class="st8" width="136.7" height="57"/>
	<rect x="1616" y="635.9" class="st5" width="136.8" height="57"/>
	<rect x="1422.2" y="635.9" class="st9" width="136.8" height="57"/>
	<path class="st10" d="M1353.9,749.9h-114c-6.4,0-11.4-5.1-11.4-11.4c0-6.3,5.1-11.4,11.4-11.4h114c6.3,0,11.3,5.1,11.3,11.4
		C1365.2,744.7,1360.2,749.9,1353.9,749.9L1353.9,749.9z M1353.9,749.9"/>
	<path class="st10" d="M1353.9,795.4h-114c-6.4,0-11.4-5.1-11.4-11.4c0-6.3,5.1-11.3,11.4-11.3h114c6.3,0,11.3,5.1,11.3,11.3
		C1365.2,790.3,1360.2,795.4,1353.9,795.4L1353.9,795.4z M1353.9,795.4"/>
	<path class="st10" d="M1547.6,749.9h-114c-6.3,0-11.4-5.1-11.4-11.4c0-6.3,5.1-11.4,11.4-11.4h114c6.3,0,11.4,5.1,11.4,11.4
		C1559,744.7,1553.9,749.9,1547.6,749.9L1547.6,749.9z M1547.6,749.9"/>
	<path class="st10" d="M1547.6,795.4h-114c-6.3,0-11.4-5.1-11.4-11.4c0-6.3,5.1-11.3,11.4-11.3h114c6.3,0,11.4,5.1,11.4,11.3
		C1559,790.3,1553.9,795.4,1547.6,795.4L1547.6,795.4z M1547.6,795.4"/>
	<path class="st10" d="M1741.4,749.9h-114c-6.3,0-11.4-5.1-11.4-11.4c0-6.3,5.1-11.4,11.4-11.4h114c6.3,0,11.4,5.1,11.4,11.4
		C1752.8,744.7,1747.7,749.9,1741.4,749.9L1741.4,749.9z M1741.4,749.9"/>
	<path class="st10" d="M1741.4,795.4h-114c-6.3,0-11.4-5.1-11.4-11.4c0-6.3,5.1-11.3,11.4-11.3h114c6.3,0,11.4,5.1,11.4,11.3
		C1752.8,790.3,1747.7,795.4,1741.4,795.4L1741.4,795.4z M1741.4,795.4"/>
	<path class="st11" d="M1456.4,489.1v-71.2c0-6.5,7.1-10.6,12.7-7.3l61.6,35.3c5.7,3.2,5.7,11.4,0.1,14.7l-61.6,35.9
		C1463.6,499.8,1456.4,495.7,1456.4,489.1L1456.4,489.1z M1456.4,489.1"/>
</g>
<g>
	<path class="st11" d="M137.8,412.9c4.5,1.4,8.4,3.3,11.9,5.8l-6.8,12.2c-3.5-2.3-7.2-4.1-11-5.3c-3.9-1.2-7.3-1.8-10.3-1.8
		c-3.5,0-6.3,0.7-8.5,2c-2.1,1.4-3.2,3.3-3.2,5.7c0,1.9,0.6,3.5,1.9,4.7c1.3,1.3,2.8,2.3,4.7,3c1.9,0.8,4.5,1.7,7.8,2.7
		c4.5,1.4,8.1,2.8,10.9,4.1c2.8,1.3,5.2,3.2,7.2,5.7c2,2.5,3,5.7,3,9.7c0,5.1-1.3,9.5-4,13.3c-2.7,3.7-6.3,6.6-10.9,8.6
		c-4.6,2-9.8,3-15.5,3c-5.7,0-11.1-1.1-16.4-3.2c-5.3-2.1-9.7-5-13.4-8.7l7-12c3.4,3.4,7.2,6.1,11.7,8.1c4.4,2,8.6,2.9,12.6,2.9
		c4.2,0,7.5-0.8,9.9-2.5c2.4-1.6,3.6-3.9,3.6-6.9c0-1.9-0.6-3.4-1.9-4.7c-1.3-1.2-2.9-2.2-4.8-3c-1.9-0.8-4.5-1.7-7.8-2.7
		c-4.5-1.3-8.1-2.6-11-3.9c-2.8-1.3-5.3-3.2-7.2-5.6c-2-2.4-3-5.7-3-9.7c0-4.7,1.3-8.9,3.8-12.5c2.5-3.6,6-6.4,10.6-8.4
		c4.5-2,9.6-2.9,15.4-2.9C128.7,410.8,133.3,411.5,137.8,412.9z"/>
	<path class="st11" d="M173.3,467.5c-0.2,1.1-0.3,2.1-0.3,2.8c0,1.4,0.3,2.4,1,2.9c0.7,0.5,1.7,0.8,3.1,0.8c2.2,0,5.1-0.8,8.8-2.5
		l1.9,10.8c-4.6,2.5-9.4,3.8-14.4,3.8c-4.3,0-7.7-1.1-10.3-3.4c-2.6-2.3-3.9-5.5-3.9-9.7c0-1.5,0.1-2.9,0.4-4.3l5.5-27.1h-7.8
		l1.9-10h7.9l3-15.4h13.6l-3.1,15.4h16.1l-1.8,10h-16.3L173.3,467.5z"/>
	<path class="st11" d="M208.6,482.9c-3.5-2.1-6.2-5.1-8.1-8.9c-1.9-3.8-2.9-8.2-2.9-13.1c0-6,1.3-11.5,4-16.4
		c2.7-4.9,6.3-8.8,10.9-11.6c4.6-2.8,9.8-4.3,15.4-4.3c4.7,0,8.7,1,11.9,3s5.6,4.9,7.1,8.7l2.3-11.1H263l-11.2,56.2h-13.5l1.6-7.7
		c-2.5,2.7-5.4,4.7-8.7,6.1c-3.3,1.4-6.8,2.2-10.5,2.2C216.1,486.1,212.1,485,208.6,482.9z M234.7,472.2c2.8-1.7,5-4.1,6.6-7.1
		c1.6-3,2.4-6.2,2.4-9.7c0-4.4-1.3-8-3.8-10.7c-2.5-2.7-5.9-4-10.1-4c-3.4,0-6.4,0.9-9.2,2.6c-2.8,1.8-5,4.1-6.7,7.1
		c-1.6,3-2.5,6.3-2.5,9.8c0,4.4,1.3,7.9,3.8,10.6c2.6,2.7,5.9,4,10.1,4C228.8,474.8,231.9,474,234.7,472.2z"/>
	<path class="st11" d="M300.7,431.5c3.5-1.8,7.4-2.7,11.7-2.8l-1.7,13.2l-1.8-0.1c-5.1,0-9.6,1.5-13.3,4.5c-3.8,3-6.3,6.8-7.6,11.5
		l-5.6,27.6h-13.6l11.1-56.2h13.8l-2,10.1C294.1,435.9,297.2,433.3,300.7,431.5z"/>
	<path class="st11" d="M330.8,467.5c-0.2,1.1-0.3,2.1-0.3,2.8c0,1.4,0.3,2.4,1,2.9c0.7,0.5,1.7,0.8,3.1,0.8c2.2,0,5.1-0.8,8.8-2.5
		l1.9,10.8c-4.6,2.5-9.4,3.8-14.4,3.8c-4.3,0-7.7-1.1-10.3-3.4c-2.6-2.3-3.9-5.5-3.9-9.7c0-1.5,0.1-2.9,0.4-4.3l5.5-27.1h-7.8
		l1.9-10h7.9l3-15.4h13.6l-3.1,15.4h16.1l-1.8,10H336L330.8,467.5z"/>
	<path class="st11" d="M435.8,485.4l-3.9-15.5h-36l-9,15.5h-14.5l44.3-73.5h14.5l19.7,73.5H435.8z M402.9,457.8h26l-7.8-31.3
		L402.9,457.8z"/>
	<path class="st11" d="M547.6,451.7c2.2,2.7,3.3,6,3.3,9.9c0,4.8-1.3,9-3.9,12.6c-2.6,3.6-6.3,6.3-11.1,8.3
		c-4.8,2-10.3,2.9-16.6,2.9h-33.5l14.7-73.5H533c6.9,0,12.3,1.4,16.2,4.1c3.8,2.7,5.8,6.5,5.8,11.3c0,4.6-1.5,8.7-4.5,12.2
		c-3,3.5-7,5.8-12,7C542.4,447.3,545.4,449,547.6,451.7z M532,470.2c3-2,4.5-4.8,4.5-8.4c0-2.5-1.1-4.5-3.3-5.9
		c-2.2-1.4-5.3-2.1-9.2-2.1h-18l-3.9,19.4h17.7C525,473.3,529,472.2,532,470.2z M536.2,439c2.5-2,3.7-4.5,3.7-7.8
		c0-2.3-0.9-4.1-2.6-5.3c-1.7-1.2-4.2-1.8-7.4-1.8h-18.1l-3.6,17.8h18C530.4,442,533.7,441,536.2,439z"/>
	<path class="st11" d="M589.4,407.5l-15.5,77.9h-13.7l15.5-77.9H589.4z"/>
	<path class="st11" d="M638.8,432c4.1,2.1,7.2,5.2,9.4,9.1c2.2,3.9,3.3,8.4,3.3,13.4c0,6.1-1.4,11.5-4.3,16.3
		c-2.8,4.8-6.7,8.5-11.7,11.1c-4.9,2.7-10.5,4-16.7,4c-5.4,0-10.1-1.1-14.2-3.3c-4.1-2.2-7.2-5.2-9.5-9.1s-3.3-8.4-3.3-13.5
		c0-6.1,1.4-11.5,4.2-16.2c2.8-4.7,6.7-8.4,11.7-11.1c5-2.7,10.6-4,16.8-4C630,428.8,634.7,429.9,638.8,432z M614.4,442.9
		c-2.7,1.6-4.8,3.9-6.4,6.7c-1.5,2.9-2.3,6.1-2.3,9.8c0,4.6,1.3,8.2,3.9,11c2.6,2.8,6,4.1,10.3,4.1c3.4,0,6.4-0.8,9-2.4
		c2.7-1.6,4.8-3.8,6.3-6.7c1.5-2.9,2.3-6.1,2.3-9.8c0-4.5-1.3-8.1-3.8-10.9c-2.6-2.8-6-4.2-10.2-4.2
		C620.2,440.5,617.1,441.3,614.4,442.9z"/>
	<path class="st11" d="M654.1,498.6l6.1-9.3c4.8,3.8,10.5,5.7,17,5.7c5.3,0,9.6-1.1,12.8-3.3c3.2-2.2,5.3-5.3,6.3-9.4l1.8-7
		c-2.5,2.5-5.2,4.3-8.2,5.6c-3,1.3-6.2,1.9-9.7,1.9c-4.2,0-7.9-1-11.2-2.9c-3.3-2-5.8-4.7-7.6-8.3c-1.8-3.6-2.7-7.6-2.7-12.2
		c0-5.7,1.3-10.8,3.8-15.5c2.5-4.7,5.9-8.3,10.3-11c4.3-2.7,9.2-4,14.5-4c4.4,0,8.1,0.9,11.2,2.7c3,1.8,5.2,4.4,6.6,7.9l2.2-10.1
		h13.6l-11.1,54.1c-1.5,7.4-5.1,13.1-10.6,17.1c-5.5,4-12.7,5.9-21.7,5.9C669.2,506.3,661.4,503.7,654.1,498.6z M693.6,469
		c2.6-1.6,4.6-3.7,6.1-6.4c1.5-2.7,2.3-5.6,2.3-8.7c0-4-1.2-7.2-3.5-9.6c-2.3-2.4-5.4-3.6-9.2-3.6c-3,0-5.8,0.8-8.3,2.4
		c-2.6,1.6-4.6,3.8-6.1,6.5c-1.5,2.7-2.3,5.7-2.3,8.9c0,3.9,1.2,7.1,3.5,9.4c2.3,2.3,5.4,3.5,9.2,3.5
		C688.3,471.4,691.1,470.6,693.6,469z"/>
	<path class="st11" d="M152.4,550.2h-36.6l-4,19.8H145l-2.3,12.3h-33.4l-5.8,29.1H89.5l14.7-73.5h50.6L152.4,550.2z"/>
	<path class="st11" d="M182,557.5c3.5-1.8,7.4-2.7,11.7-2.8L192,568l-1.8-0.1c-5.1,0-9.6,1.5-13.3,4.5c-3.8,3-6.3,6.8-7.6,11.5
		l-5.6,27.6h-13.6l11.1-56.2H175l-2,10.1C175.5,561.9,178.5,559.3,182,557.5z"/>
	<path class="st11" d="M243.8,561.4c4.5,4.4,6.8,10.3,6.8,17.8c0,2.9-0.4,5.9-1,8.9h-42.6c0.3,4.1,1.9,7.2,4.5,9.6
		c2.7,2.3,6.2,3.5,10.7,3.5c5.3,0,10.2-1.7,14.7-5l6.4,8.3c-5.9,5.1-13.1,7.7-21.5,7.7c-5.7,0-10.6-1-14.9-3.1
		c-4.3-2.1-7.6-5.1-9.9-9c-2.3-3.9-3.5-8.4-3.5-13.5c0-5.9,1.4-11.3,4.1-16.1c2.8-4.8,6.6-8.6,11.4-11.3c4.9-2.8,10.3-4.1,16.3-4.1
		C233.1,554.8,239.3,557,243.8,561.4z M235,569.2c-2.2-2.3-5.3-3.5-9.4-3.5c-4.1,0-7.7,1.2-10.9,3.7c-3.2,2.5-5.4,5.7-6.8,9.7h30.1
		C238.2,574.8,237.2,571.5,235,569.2z"/>
	<path class="st11" d="M307.6,561.4c4.5,4.4,6.8,10.3,6.8,17.8c0,2.9-0.4,5.9-1,8.9h-42.6c0.3,4.1,1.9,7.2,4.5,9.6
		c2.7,2.3,6.2,3.5,10.7,3.5c5.3,0,10.2-1.7,14.7-5l6.4,8.3c-5.9,5.1-13.1,7.7-21.5,7.7c-5.7,0-10.6-1-14.9-3.1
		c-4.3-2.1-7.6-5.1-9.9-9c-2.3-3.9-3.5-8.4-3.5-13.5c0-5.9,1.4-11.3,4.1-16.1c2.8-4.8,6.6-8.6,11.4-11.3c4.9-2.8,10.3-4.1,16.3-4.1
		C296.9,554.8,303.1,557,307.6,561.4z M298.9,569.2c-2.2-2.3-5.3-3.5-9.4-3.5c-4.1,0-7.7,1.2-10.9,3.7c-3.2,2.5-5.4,5.7-6.8,9.7
		h30.1C302.1,574.8,301,571.5,298.9,569.2z"/>
	<path class="st11" d="M412.9,550.2H373l-3.7,18.2h35.8l-2.4,12.3h-35.8l-3.7,18.5h40.9l-2.3,12.3h-55.1l14.7-73.5h53.8L412.9,550.2
		z"/>
	<path class="st11" d="M513.1,559.4c3.6,3.3,5.5,7.7,5.5,13.3c0,1.8-0.2,3.6-0.6,5.7l-6.6,33.1h-13.8l6.2-31.1
		c0.2-1.2,0.3-2.3,0.3-3.4c0-3.1-1-5.6-2.9-7.5c-2-1.8-4.7-2.7-8.2-2.7c-4.1,0-7.6,1.4-10.6,4.1c-3,2.7-5,6.3-6,10.8l-6,29.7h-13.8
		l6.2-31.1c0.2-1.2,0.3-2.3,0.3-3.4c0-3.1-1-5.6-2.9-7.5c-2-1.8-4.7-2.7-8.2-2.7c-4,0-7.5,1.4-10.6,4.1c-3,2.7-5,6.3-5.9,10.8
		l-6.1,29.7h-13.6l11-56.2h13.9l-1.6,8c4.4-5.8,10.5-8.7,18.3-8.7c5.1,0,9.4,1.1,12.8,3.3c3.4,2.2,5.7,5.3,6.8,9.2
		c5.3-8.3,12.4-12.5,21.3-12.5C504.5,554.5,509.4,556.2,513.1,559.4z"/>
	<path class="st11" d="M538.1,608.9c-3.5-2.1-6.2-5.1-8.1-8.9c-1.9-3.8-2.9-8.2-2.9-13.1c0-6,1.3-11.5,4-16.4
		c2.7-4.9,6.3-8.8,10.9-11.6c4.6-2.8,9.8-4.3,15.4-4.3c4.7,0,8.7,1,11.9,3s5.6,4.9,7.1,8.7l2.3-11.1h13.6l-11.2,56.2h-13.5l1.6-7.7
		c-2.5,2.7-5.4,4.7-8.7,6.1c-3.3,1.4-6.8,2.2-10.5,2.2C545.5,612.1,541.6,611,538.1,608.9z M564.2,598.2c2.8-1.7,5-4.1,6.6-7.1
		c1.6-3,2.4-6.2,2.4-9.7c0-4.4-1.3-8-3.8-10.7c-2.5-2.7-5.9-4-10.1-4c-3.4,0-6.4,0.9-9.2,2.6c-2.8,1.8-5,4.1-6.7,7.1
		c-1.6,3-2.5,6.3-2.5,9.8c0,4.4,1.3,7.9,3.8,10.6c2.6,2.7,5.9,4,10.1,4C558.3,600.8,561.4,600,564.2,598.2z"/>
	<path class="st11" d="M623,555.3l-11.2,56.2h-13.5l11.1-56.2H623z M625.4,533c1.2,1.3,1.8,2.9,1.8,4.8c0,2.7-0.9,4.9-2.8,6.8
		c-1.9,1.9-4.1,2.8-6.6,2.8c-1.9,0-3.4-0.6-4.6-1.9c-1.2-1.3-1.8-2.9-1.8-4.8c0-2.7,0.9-4.9,2.8-6.8c1.9-1.9,4.1-2.8,6.6-2.8
		C622.7,531.1,624.2,531.7,625.4,533z"/>
	<path class="st11" d="M658.5,533.5l-15.5,77.9h-13.7l15.5-77.9H658.5z"/>
	<path class="st11" d="M746.4,540.1c4.8,2.1,8.8,5,12.1,8.7l-9.2,10.3c-2.4-3-5.2-5.4-8.6-7c-3.3-1.7-6.8-2.5-10.3-2.5
		c-4.9,0-9.5,1.2-13.6,3.6c-4.2,2.4-7.5,5.7-10,9.8c-2.5,4.1-3.7,8.6-3.7,13.5c0,4.2,1,8,2.9,11.5c1.9,3.5,4.6,6.2,8,8.2
		c3.4,2,7.2,3,11.4,3c3.5,0,7.1-0.8,10.8-2.3c3.7-1.5,7-3.7,10-6.4l7.5,9.2c-4.3,3.9-9.1,7-14.4,9.3c-5.4,2.3-10.6,3.4-15.8,3.4
		c-6.7,0-12.6-1.5-17.9-4.6c-5.3-3-9.4-7.2-12.4-12.4c-3-5.3-4.5-11.1-4.5-17.6c0-7.5,1.9-14.3,5.8-20.6c3.9-6.2,9.1-11.2,15.6-14.8
		c6.5-3.6,13.7-5.5,21.4-5.5C736.6,537,741.6,538,746.4,540.1z"/>
	<path class="st11" d="M808.1,558c4.1,2.1,7.2,5.2,9.4,9.1c2.2,3.9,3.3,8.4,3.3,13.4c0,6.1-1.4,11.5-4.3,16.3
		c-2.8,4.8-6.7,8.5-11.7,11.1c-4.9,2.7-10.5,4-16.7,4c-5.4,0-10.1-1.1-14.2-3.3c-4.1-2.2-7.2-5.2-9.5-9.1s-3.3-8.4-3.3-13.5
		c0-6.1,1.4-11.5,4.2-16.2c2.8-4.7,6.7-8.4,11.7-11.1c5-2.7,10.6-4,16.8-4C799.2,554.8,804,555.9,808.1,558z M783.7,568.9
		c-2.7,1.6-4.8,3.9-6.4,6.7c-1.5,2.9-2.3,6.1-2.3,9.8c0,4.6,1.3,8.2,3.9,11c2.6,2.8,6,4.1,10.3,4.1c3.4,0,6.4-0.8,9-2.4
		c2.7-1.6,4.8-3.8,6.3-6.7c1.5-2.9,2.3-6.1,2.3-9.8c0-4.5-1.3-8.1-3.8-10.9c-2.6-2.8-6-4.2-10.2-4.2
		C789.4,566.5,786.4,567.3,783.7,568.9z"/>
	<path class="st11" d="M834.9,607.3c-3.6-3.3-5.4-7.6-5.4-13.2c0-1.9,0.2-3.8,0.6-5.8l6.6-33.1h13.8l-6.2,31.1
		c-0.2,1.1-0.3,2.2-0.3,3.4c0,3.1,1,5.6,2.9,7.5c2,1.8,4.7,2.7,8.2,2.7c4,0,7.5-1.4,10.6-4.1s5-6.3,5.9-10.8l6.1-29.7h13.7l-11,56.2
		h-13.9l1.6-8c-4.4,5.8-10.5,8.7-18.3,8.7C843.5,612.2,838.5,610.5,834.9,607.3z"/>
	<path class="st11" d="M929.3,557.5c3.5-1.8,7.4-2.7,11.7-2.8l-1.7,13.2l-1.8-0.1c-5.1,0-9.6,1.5-13.3,4.5c-3.8,3-6.3,6.8-7.6,11.5
		l-5.6,27.6h-13.6l11.1-56.2h13.8l-2,10.1C922.8,561.9,925.8,559.3,929.3,557.5z"/>
	<path class="st11" d="M946.8,609.1c-4.8-2-8.5-4.5-11.1-7.7l5.9-8.9c2.4,2.6,5.4,4.7,9,6.4c3.6,1.7,7.1,2.5,10.3,2.5
		c2.6,0,4.7-0.5,6.2-1.6c1.5-1.1,2.3-2.5,2.3-4.4c0-1.6-0.8-2.9-2.3-4c-1.5-1-3.9-2.2-7.1-3.5c-3.2-1.3-5.9-2.6-7.9-3.7
		c-2.1-1.1-3.8-2.7-5.3-4.7c-1.5-2-2.2-4.5-2.2-7.6c0-3.4,0.9-6.4,2.6-9c1.7-2.6,4.2-4.6,7.3-6.1c3.2-1.5,6.8-2.2,10.9-2.2
		c4.2,0,8.4,0.8,12.7,2.3c4.2,1.5,7.8,3.5,10.7,6l-6.5,9c-2.7-2-5.6-3.7-8.7-4.9c-3.1-1.2-5.8-1.8-8.2-1.8c-2.2,0-4,0.5-5.4,1.6
		c-1.4,1-2.2,2.3-2.2,3.9c0,1.5,0.7,2.8,2.2,3.7c1.5,0.9,3.8,2.1,7.1,3.5c3.4,1.4,6.1,2.7,8.2,3.8c2.1,1.2,3.9,2.8,5.5,4.8
		c1.5,2.1,2.3,4.6,2.3,7.7c0,3.4-0.9,6.5-2.7,9.1c-1.8,2.7-4.4,4.7-7.7,6.2c-3.3,1.5-7,2.3-11.2,2.3
		C956.4,612.1,951.6,611.1,946.8,609.1z"/>
	<path class="st11" d="M1042.7,561.4c4.5,4.4,6.8,10.3,6.8,17.8c0,2.9-0.4,5.9-1.1,8.9h-42.6c0.3,4.1,1.9,7.2,4.5,9.6
		c2.7,2.3,6.2,3.5,10.7,3.5c5.3,0,10.2-1.7,14.7-5l6.4,8.3c-5.9,5.1-13.1,7.7-21.5,7.7c-5.7,0-10.6-1-14.9-3.1
		c-4.3-2.1-7.6-5.1-9.9-9c-2.3-3.9-3.5-8.4-3.5-13.5c0-5.9,1.4-11.3,4.1-16.1c2.8-4.8,6.6-8.6,11.4-11.3c4.9-2.8,10.3-4.1,16.3-4.1
		C1032,554.8,1038.2,557,1042.7,561.4z M1034,569.2c-2.2-2.3-5.3-3.5-9.5-3.5c-4.1,0-7.7,1.2-10.9,3.7c-3.2,2.5-5.4,5.7-6.8,9.7
		h30.1C1037.1,574.8,1036.1,571.5,1034,569.2z"/>
</g>
</svg>
